<svg width="138" height="76" viewBox="0 0 138 76" fill="none" xmlns="http://www.w3.org/2000/svg">
<path d="M57.4701 12.7914H66.1506C68.9753 12.7914 71.0937 13.5492 72.506 15.0649C73.9183 16.5805 74.6245 18.8023 74.6245 21.7303V40.0214C74.6245 42.9493 73.9183 45.1711 72.506 46.6868C71.0937 48.2024 68.9753 48.9603 66.1506 48.9603H57.4701V12.7914ZM66.0473 43.7933C66.9774 43.7933 67.6835 43.5177 68.1658 42.9666C68.6825 42.4154 68.9408 41.5198 68.9408 40.2797V21.4719C68.9408 20.2318 68.6825 19.3362 68.1658 18.7851C67.6835 18.2339 66.9774 17.9584 66.0473 17.9584H63.1538V43.7933H66.0473ZM86.6765 49.477C83.8863 49.477 81.7506 48.6847 80.2694 47.1002C78.7882 45.5156 78.0476 43.2766 78.0476 40.3831V21.3686C78.0476 18.4751 78.7882 16.236 80.2694 14.6515C81.7506 13.067 83.8863 12.2747 86.6765 12.2747C89.4667 12.2747 91.6023 13.067 93.0835 14.6515C94.5647 16.236 95.3053 18.4751 95.3053 21.3686V40.3831C95.3053 43.2766 94.5647 45.5156 93.0835 47.1002C91.6023 48.6847 89.4667 49.477 86.6765 49.477ZM86.6765 44.31C88.6399 44.31 89.6217 43.1216 89.6217 40.7448V21.0069C89.6217 18.6301 88.6399 17.4417 86.6765 17.4417C84.713 17.4417 83.7313 18.6301 83.7313 21.0069V40.7448C83.7313 43.1216 84.713 44.31 86.6765 44.31ZM107.158 49.477C104.437 49.477 102.353 48.7019 100.906 47.1518C99.4936 45.6017 98.7874 43.4144 98.7874 40.5898V21.1619C98.7874 18.3373 99.4936 16.1499 100.906 14.5998C102.353 13.0497 104.437 12.2747 107.158 12.2747C109.879 12.2747 111.946 13.0497 113.358 14.5998C114.805 16.1499 115.528 18.3373 115.528 21.1619V24.9855H110.155V20.8002C110.155 18.5612 109.207 17.4417 107.313 17.4417C105.418 17.4417 104.471 18.5612 104.471 20.8002V41.0031C104.471 43.2077 105.418 44.31 107.313 44.31C109.207 44.31 110.155 43.2077 110.155 41.0031V35.4744H115.528V40.5898C115.528 43.4144 114.805 45.6017 113.358 47.1518C111.946 48.7019 109.879 49.477 107.158 49.477ZM127.196 49.477C124.44 49.477 122.339 48.7019 120.892 47.1518C119.446 45.5673 118.722 43.311 118.722 40.3831V12.7914H124.406V40.7964C124.406 42.0365 124.647 42.9321 125.129 43.4833C125.646 44.0344 126.369 44.31 127.299 44.31C128.23 44.31 128.936 44.0344 129.418 43.4833C129.935 42.9321 130.193 42.0365 130.193 40.7964V12.7914H135.67V40.3831C135.67 43.311 134.947 45.5673 133.5 47.1518C132.053 48.7019 129.952 49.477 127.196 49.477Z" fill="#2870C5"/>
<path d="M62.0185 65.0528L64.1266 58.5364H65.4726L62.7022 66.2421H61.8191L62.0185 65.0528ZM60.2594 58.5364L62.4316 65.0884L62.5811 66.2421H61.698L58.9063 58.5364H60.2594ZM82.6924 64.9246V60.9578C82.6924 60.6539 82.6307 60.3904 82.5073 60.1673C82.3886 59.9394 82.2081 59.7637 81.966 59.6403C81.7239 59.5168 81.4247 59.4551 81.0687 59.4551C80.7363 59.4551 80.4443 59.5121 80.1927 59.626C79.9458 59.74 79.7511 59.8895 79.6087 60.0747C79.471 60.2598 79.4022 60.4593 79.4022 60.6729H78.0846C78.0846 60.3975 78.1559 60.1245 78.2983 59.8539C78.4407 59.5833 78.6449 59.3388 78.9108 59.1204C79.1814 58.8972 79.5042 58.7215 79.8793 58.5934C80.2591 58.4604 80.6817 58.3939 81.147 58.3939C81.7072 58.3939 82.201 58.4889 82.6283 58.6788C83.0604 58.8687 83.3975 59.156 83.6396 59.5405C83.8865 59.9204 84.0099 60.3975 84.0099 60.972V64.5614C84.0099 64.8178 84.0313 65.0908 84.074 65.3804C84.1215 65.67 84.1904 65.9193 84.2806 66.1282V66.2421H82.9061C82.8396 66.0902 82.7874 65.8884 82.7494 65.6368C82.7114 65.3804 82.6924 65.143 82.6924 64.9246ZM82.9203 61.5703L82.9346 62.4961H81.6028C81.2277 62.4961 80.893 62.5269 80.5986 62.5887C80.3043 62.6456 80.0574 62.7335 79.858 62.8522C79.6585 62.9709 79.5066 63.1204 79.4022 63.3008C79.2977 63.4765 79.2455 63.683 79.2455 63.9204C79.2455 64.1626 79.3001 64.3833 79.4093 64.5828C79.5185 64.7822 79.6823 64.9412 79.9007 65.0599C80.1238 65.1739 80.3968 65.2308 80.7197 65.2308C81.1233 65.2308 81.4793 65.1454 81.788 64.9745C82.0966 64.8035 82.3411 64.5946 82.5215 64.3477C82.7067 64.1009 82.8064 63.8611 82.8206 63.6284L83.3832 64.2623C83.35 64.4617 83.2598 64.6825 83.1126 64.9246C82.9654 65.1667 82.7684 65.3994 82.5215 65.6225C82.2794 65.8409 81.9897 66.0237 81.6526 66.1709C81.3203 66.3133 80.9452 66.3846 80.5274 66.3846C80.0051 66.3846 79.547 66.2825 79.1529 66.0783C78.7636 65.8742 78.4597 65.6012 78.2413 65.2593C78.0277 64.9127 77.9208 64.5258 77.9208 64.0985C77.9208 63.6854 78.0016 63.3222 78.163 63.0088C78.3244 62.6907 78.557 62.4272 78.8609 62.2183C79.1648 62.0047 79.5304 61.8433 79.9577 61.7341C80.385 61.6249 80.8621 61.5703 81.3891 61.5703H82.9203ZM102.319 64.4617V58.5364H103.644V66.2421H102.384L102.319 64.4617ZM102.569 62.8379L103.117 62.8237C103.117 63.3364 103.062 63.8112 102.953 64.248C102.849 64.6801 102.678 65.0552 102.44 65.3733C102.203 65.6914 101.892 65.9406 101.508 66.1211C101.123 66.2967 100.655 66.3846 100.105 66.3846C99.7295 66.3846 99.3853 66.33 99.0719 66.2208C98.7633 66.1116 98.4974 65.943 98.2743 65.7151C98.0511 65.4872 97.8778 65.1905 97.7544 64.8249C97.6357 64.4593 97.5763 64.0201 97.5763 63.5074V58.5364H98.8939V63.5216C98.8939 63.8682 98.9318 64.1555 99.0078 64.3833C99.0885 64.6065 99.1953 64.7845 99.3283 64.9175C99.466 65.0457 99.6179 65.1359 99.7841 65.1881C99.955 65.2403 100.131 65.2664 100.311 65.2664C100.871 65.2664 101.315 65.1596 101.643 64.946C101.97 64.7276 102.205 64.4356 102.348 64.07C102.495 63.6997 102.569 63.289 102.569 62.8379ZM118.606 55.3031V66.2421H117.282V55.3031H118.606ZM135.47 58.5364V59.5477H131.304V58.5364H135.47ZM132.714 56.6634H134.031V64.3335C134.031 64.5946 134.072 64.7917 134.153 64.9246C134.233 65.0575 134.338 65.1454 134.466 65.1881C134.594 65.2308 134.732 65.2522 134.879 65.2522C134.988 65.2522 135.102 65.2427 135.221 65.2237C135.344 65.2 135.437 65.181 135.499 65.1667L135.506 66.2421C135.401 66.2754 135.264 66.3062 135.093 66.3347C134.926 66.3679 134.725 66.3846 134.487 66.3846C134.164 66.3846 133.868 66.3205 133.597 66.1923C133.326 66.0641 133.11 65.8504 132.949 65.5513C132.792 65.2475 132.714 64.8391 132.714 64.3264V56.6634Z" fill="#DAB909"/>
<rect x="19.8901" y="34.8846" width="9.31023" height="6.34788" fill="#2870C5"/>
<mask id="mask0_30_1582" style="mask-type:luminance" maskUnits="userSpaceOnUse" x="0" y="13" width="49" height="36">
<path d="M48.2439 13.3018H0V48.9863H48.2439V13.3018Z" fill="white"/>
</mask>
<g mask="url(#mask0_30_1582)">
<path d="M48.2442 36.2298C48.2442 38.4584 47.6602 40.6481 46.5506 42.5809C45.441 44.5136 43.8444 46.1219 41.92 47.2457C39.9954 48.3695 37.81 48.9694 35.5815 48.9859C33.3529 49.0023 31.1589 48.4347 29.2181 47.3394C27.9132 48.2983 26.3613 48.8635 24.7456 48.9685C23.1299 49.0736 21.5177 48.714 20.0998 47.9324C18.3408 48.6336 16.4637 48.9914 14.5701 48.9864C6.5362 48.9864 0.000488281 42.6474 0.000488281 34.8552C0.000488281 27.0631 6.5362 20.7241 14.5701 20.7241H14.5735C16.1637 18.0707 18.5221 15.9626 21.3366 14.6787C24.151 13.3948 27.2888 12.9956 30.3351 13.5339C33.3815 14.0722 36.1925 15.5227 38.3965 17.6934C40.6003 19.8641 42.0935 22.6528 42.678 25.6905C44.3997 26.8555 45.808 28.4263 46.7786 30.2643C47.7494 32.1024 48.2528 34.1512 48.2442 36.2298ZM29.0889 44.0698C29.3854 44.0696 29.675 44.1598 29.9191 44.3283C31.0022 45.0726 32.2238 45.5921 33.5114 45.8561C34.7989 46.1202 36.1262 46.1232 37.415 45.8652C38.7036 45.6071 39.9275 45.0933 41.0143 44.354C42.101 43.6148 43.0284 42.6651 43.7415 41.561C44.4547 40.4572 44.9392 39.2213 45.1666 37.9268C45.3939 36.6323 45.359 35.3053 45.0646 34.0245C44.77 32.7436 44.2216 31.5349 43.4518 30.4696C42.6818 29.4044 41.706 28.5044 40.5823 27.8229C40.3979 27.7109 40.2407 27.5597 40.1217 27.3798C40.0028 27.2001 39.9249 26.9962 39.8938 26.7828C39.5142 24.1983 38.3247 21.8007 36.4966 19.9348C34.6683 18.0689 32.2955 16.8307 29.7193 16.3985C27.143 15.9662 24.4962 16.362 22.1589 17.529C19.8218 18.6959 17.9151 20.574 16.7126 22.8931C16.5826 23.1449 16.3819 23.3534 16.1352 23.4931C15.8885 23.6327 15.6065 23.6973 15.3236 23.6791C15.0342 23.6613 14.7943 23.6527 14.5688 23.6527C8.14922 23.6527 2.92641 28.6786 2.92641 34.856C2.92641 41.0333 8.14994 46.0591 14.5688 46.0591C16.3075 46.0646 18.0264 45.6891 19.6044 44.9591C19.8352 44.8525 20.0898 44.8076 20.3431 44.8291C20.5964 44.8507 20.8398 44.9379 21.0491 45.082C22.1075 45.8098 23.3853 46.148 24.6652 46.0391C25.9448 45.9301 27.1472 45.3807 28.0672 44.4844C28.3407 44.2183 28.7073 44.0694 29.0889 44.0698Z" fill="#2870C5"/>
<path d="M25.3816 27.2945C25.0508 26.9636 24.6018 26.7777 24.1339 26.7777C23.6659 26.7777 23.2171 26.9636 22.8862 27.2945L17.3469 32.8339L16.7968 33.3841L13.9741 36.2068L7.50488 42.676C9.23246 43.9393 11.2662 44.7182 13.3956 44.9318C15.5251 45.1457 17.6731 44.7868 19.6173 43.8921C19.8481 43.7856 20.1025 43.741 20.3558 43.7624C20.609 43.784 20.8523 43.8712 21.0617 44.0152C22.1198 44.743 23.3979 45.0812 24.6776 44.9722C25.9572 44.8632 27.1595 44.3137 28.0794 43.4174C28.3224 43.1814 28.6396 43.0367 28.9771 43.0083C29.3148 42.9799 29.6517 43.0692 29.9307 43.2613C31.5965 44.4086 33.5763 45.0131 35.5987 44.9917C37.6212 44.9703 39.5878 44.3243 41.2289 43.142L25.3816 27.2945ZM24.0033 40.6159C24.0033 40.6821 23.9769 40.7457 23.9301 40.7927C23.8831 40.8395 23.8195 40.866 23.7532 40.866H21.7207C21.6544 40.866 21.5908 40.8395 21.5439 40.7927C21.4969 40.7457 21.4706 40.6821 21.4706 40.6159V38.5834C21.4706 38.5171 21.4969 38.4535 21.5439 38.4065C21.5908 38.3597 21.6544 38.3333 21.7207 38.3333H23.7532C23.8195 38.3333 23.8831 38.3597 23.9301 38.4065C23.9769 38.4535 24.0033 38.5171 24.0033 38.5834V40.6159ZM24.0033 37.5377C24.0033 37.604 23.9769 37.6676 23.9301 37.7146C23.8831 37.7616 23.8195 37.7878 23.7532 37.7878H21.7207C21.6544 37.7878 21.5908 37.7616 21.5439 37.7146C21.4969 37.6676 21.4706 37.604 21.4706 37.5377V35.5052C21.4706 35.439 21.4969 35.3754 21.5439 35.3284C21.5908 35.2816 21.6544 35.2551 21.7207 35.2551H23.7532C23.8195 35.2551 23.8831 35.2816 23.9301 35.3284C23.9769 35.3754 24.0033 35.439 24.0033 35.5052V37.5377ZM27.2631 40.6159C27.2631 40.6821 27.2367 40.7457 27.1899 40.7927C27.1429 40.8395 27.0793 40.866 27.013 40.866H24.9805C24.9143 40.866 24.8507 40.8395 24.8037 40.7927C24.7567 40.7457 24.7304 40.6821 24.7304 40.6159V38.5834C24.7304 38.5171 24.7567 38.4535 24.8037 38.4065C24.8507 38.3597 24.9143 38.3333 24.9805 38.3333H27.013C27.0793 38.3333 27.1429 38.3597 27.1899 38.4065C27.2367 38.4535 27.2631 38.5171 27.2631 38.5834V40.6159ZM27.2631 37.5377C27.2631 37.604 27.2367 37.6676 27.1899 37.7146C27.1429 37.7616 27.0793 37.7878 27.013 37.7878H24.9805C24.9143 37.7878 24.8507 37.7616 24.8037 37.7146C24.7567 37.6676 24.7304 37.604 24.7304 37.5377V35.5052C24.7304 35.439 24.7567 35.3754 24.8037 35.3284C24.8507 35.2816 24.9143 35.2551 24.9805 35.2551H27.013C27.0793 35.2551 27.1429 35.2816 27.1899 35.3284C27.2367 35.3754 27.2631 35.439 27.2631 35.5052V37.5377Z" fill="#2870C5"/>
</g>
<path d="M28.777 33.1583V38.4414C28.777 38.657 28.6953 38.8637 28.5498 39.0162C28.4043 39.1686 28.2069 39.2542 28.0012 39.2542H23.3461V40.067C23.3461 40.1475 23.3234 40.2261 23.2808 40.293C23.2382 40.3599 23.1775 40.412 23.1066 40.4428C23.0357 40.4736 22.9577 40.4816 22.8824 40.4659C22.8071 40.4502 22.7379 40.4115 22.6837 40.3546L21.5199 39.1354C21.4838 39.0976 21.4552 39.0528 21.4357 39.0035C21.4162 38.9541 21.4061 38.9012 21.4061 38.8478C21.4061 38.7944 21.4162 38.7415 21.4357 38.6922C21.4552 38.6429 21.4838 38.5981 21.5199 38.5603L22.6837 37.3411C22.7379 37.2842 22.8071 37.2455 22.8824 37.2298C22.9577 37.214 23.0357 37.2221 23.1066 37.2529C23.1775 37.2837 23.2382 37.3358 23.2808 37.4027C23.3234 37.4696 23.3461 37.5482 23.3461 37.6286V38.4414H28.0012V33.1583H22.5702V33.5647C22.5702 33.6724 22.5293 33.7758 22.4566 33.852C22.3838 33.9282 22.2852 33.9711 22.1823 33.9711C22.0794 33.9711 21.9807 33.9282 21.908 33.852C21.8352 33.7758 21.7944 33.6724 21.7944 33.5647V33.1583C21.7944 32.9427 21.8761 32.736 22.0216 32.5835C22.1671 32.4311 22.3644 32.3455 22.5702 32.3455H28.0012C28.2069 32.3455 28.4043 32.4311 28.5498 32.5835C28.6953 32.736 28.777 32.9427 28.777 33.1583ZM26.0615 40.4734C25.9587 40.4734 25.86 40.5163 25.7872 40.5925C25.7145 40.6687 25.6736 40.772 25.6736 40.8798V41.2862H20.2426V36.003H24.8978V36.8158C24.8977 36.8963 24.9204 36.9749 24.963 37.0418C25.0057 37.1087 25.0663 37.1608 25.1372 37.1916C25.2081 37.2224 25.2862 37.2304 25.3615 37.2147C25.4367 37.199 25.5059 37.1603 25.5601 37.1034L26.7239 35.8842C26.76 35.8464 26.7886 35.8016 26.8081 35.7523C26.8277 35.7029 26.8377 35.6501 26.8377 35.5966C26.8377 35.5432 26.8277 35.4904 26.8081 35.441C26.7886 35.3917 26.76 35.3469 26.7239 35.3091L25.5601 34.0899C25.5059 34.033 25.4367 33.9943 25.3615 33.9786C25.2862 33.9629 25.2081 33.9709 25.1372 34.0017C25.0663 34.0325 25.0057 34.0846 24.963 34.1515C24.9204 34.2184 24.8977 34.297 24.8978 34.3775V35.1903H20.2426C20.0369 35.1903 19.8395 35.2759 19.694 35.4283C19.5485 35.5807 19.4668 35.7875 19.4668 36.003V41.2862C19.4668 41.5018 19.5485 41.7085 19.694 41.861C19.8395 42.0134 20.0369 42.099 20.2426 42.099H25.6736C25.8794 42.099 26.0767 42.0134 26.2222 41.861C26.3677 41.7085 26.4495 41.5018 26.4495 41.2862V40.8798C26.4495 40.772 26.4086 40.6687 26.3358 40.5925C26.2631 40.5163 26.1644 40.4734 26.0615 40.4734Z" fill="#F8F9FA"/>
</svg>
