<svg width="513" height="277" viewBox="0 0 513 277" fill="none" xmlns="http://www.w3.org/2000/svg">
<path d="M213.336 44.3117H245.588C256.083 44.3117 263.954 47.1274 269.201 52.7587C274.449 58.39 277.072 66.645 277.072 77.5237V145.483C277.072 156.362 274.449 164.617 269.201 170.248C263.954 175.88 256.083 178.695 245.588 178.695H213.336V44.3117ZM245.204 159.498C248.66 159.498 251.283 158.474 253.075 156.426C254.995 154.378 255.955 151.051 255.955 146.443V76.5638C255.955 71.9563 254.995 68.6288 253.075 66.581C251.283 64.5333 248.66 63.5094 245.204 63.5094H234.453V159.498H245.204ZM321.851 180.615C311.484 180.615 303.549 177.671 298.046 171.784C292.542 165.897 289.791 157.578 289.791 146.827V76.1798C289.791 65.4291 292.542 57.1102 298.046 51.2229C303.549 45.3356 311.484 42.392 321.851 42.392C332.217 42.392 340.153 45.3356 345.656 51.2229C351.159 57.1102 353.911 65.4291 353.911 76.1798V146.827C353.911 157.578 351.159 165.897 345.656 171.784C340.153 177.671 332.217 180.615 321.851 180.615ZM321.851 161.417C329.146 161.417 332.793 157.002 332.793 148.171V74.836C332.793 66.0051 329.146 61.5896 321.851 61.5896C314.556 61.5896 310.908 66.0051 310.908 74.836V148.171C310.908 157.002 314.556 161.417 321.851 161.417ZM397.948 180.615C387.838 180.615 380.095 177.735 374.719 171.976C369.472 166.217 366.848 158.09 366.848 147.595V75.4119C366.848 64.9172 369.472 56.7902 374.719 51.0309C380.095 45.2716 387.838 42.392 397.948 42.392C408.059 42.392 415.738 45.2716 420.986 51.0309C426.361 56.7902 429.049 64.9172 429.049 75.4119V89.6182H409.083V74.0681C409.083 65.7491 405.564 61.5896 398.524 61.5896C391.485 61.5896 387.966 65.7491 387.966 74.0681V149.131C387.966 157.322 391.485 161.417 398.524 161.417C405.564 161.417 409.083 157.322 409.083 149.131V128.589H429.049V147.595C429.049 158.09 426.361 166.217 420.986 171.976C415.738 177.735 408.059 180.615 397.948 180.615ZM472.399 180.615C462.161 180.615 454.354 177.735 448.978 171.976C443.603 166.089 440.915 157.706 440.915 146.827V44.3117H462.033V148.363C462.033 152.97 462.929 156.298 464.72 158.346C466.64 160.394 469.328 161.417 472.783 161.417C476.239 161.417 478.863 160.394 480.654 158.346C482.574 156.298 483.534 152.97 483.534 148.363V44.3117H503.884V146.827C503.884 157.706 501.196 166.089 495.821 171.976C490.445 177.735 482.638 180.615 472.399 180.615Z" fill="white"/>
<path d="M229.524 238.234L237.357 214.023H242.358L232.065 242.653H228.784L229.524 238.234ZM222.989 214.023L231.059 238.367L231.615 242.653H228.334L217.961 214.023H222.989ZM306.337 237.758V223.019C306.337 221.89 306.108 220.911 305.649 220.082C305.208 219.236 304.538 218.583 303.638 218.124C302.739 217.666 301.627 217.436 300.304 217.436C299.069 217.436 297.985 217.648 297.05 218.071C296.132 218.495 295.409 219.05 294.88 219.738C294.368 220.426 294.112 221.167 294.112 221.961H289.217C289.217 220.938 289.482 219.924 290.011 218.918C290.54 217.913 291.299 217.004 292.287 216.193C293.292 215.364 294.492 214.711 295.885 214.235C297.297 213.741 298.867 213.494 300.595 213.494C302.677 213.494 304.511 213.846 306.099 214.552C307.704 215.258 308.957 216.325 309.856 217.754C310.774 219.165 311.232 220.938 311.232 223.072V236.408C311.232 237.361 311.312 238.375 311.471 239.451C311.647 240.527 311.903 241.454 312.238 242.23V242.653H307.131C306.884 242.089 306.69 241.339 306.549 240.404C306.408 239.451 306.337 238.569 306.337 237.758ZM307.184 225.295L307.237 228.735H302.289C300.895 228.735 299.652 228.85 298.558 229.079C297.464 229.291 296.547 229.617 295.806 230.058C295.065 230.499 294.501 231.055 294.112 231.725C293.724 232.378 293.53 233.145 293.53 234.027C293.53 234.927 293.733 235.747 294.139 236.488C294.545 237.229 295.153 237.82 295.965 238.261C296.794 238.684 297.808 238.896 299.008 238.896C300.507 238.896 301.83 238.578 302.977 237.943C304.123 237.308 305.032 236.532 305.702 235.615C306.39 234.697 306.761 233.807 306.814 232.942L308.904 235.297C308.78 236.038 308.445 236.858 307.898 237.758C307.352 238.658 306.619 239.522 305.702 240.351C304.803 241.163 303.726 241.842 302.474 242.389C301.239 242.918 299.846 243.182 298.293 243.182C296.353 243.182 294.65 242.803 293.186 242.045C291.74 241.286 290.611 240.272 289.799 239.002C289.006 237.714 288.609 236.276 288.609 234.689C288.609 233.154 288.909 231.804 289.508 230.64C290.108 229.458 290.972 228.479 292.101 227.703C293.23 226.909 294.589 226.309 296.176 225.904C297.764 225.498 299.537 225.295 301.495 225.295H307.184ZM379.26 236.038V214.023H384.182V242.653H379.498L379.26 236.038ZM380.186 230.005L382.224 229.952C382.224 231.857 382.021 233.621 381.615 235.244C381.227 236.849 380.592 238.243 379.71 239.425C378.828 240.607 377.673 241.533 376.244 242.203C374.815 242.856 373.077 243.182 371.031 243.182C369.638 243.182 368.359 242.979 367.194 242.574C366.048 242.168 365.06 241.542 364.231 240.695C363.402 239.848 362.758 238.746 362.299 237.387C361.858 236.029 361.638 234.397 361.638 232.492V214.023H366.533V232.545C366.533 233.833 366.674 234.9 366.956 235.747C367.256 236.576 367.653 237.238 368.147 237.731C368.658 238.208 369.223 238.543 369.84 238.737C370.475 238.931 371.128 239.028 371.798 239.028C373.88 239.028 375.529 238.631 376.747 237.837C377.964 237.026 378.837 235.941 379.366 234.583C379.913 233.207 380.186 231.681 380.186 230.005ZM439.773 202.01V242.653H434.852V202.01H439.773ZM502.43 214.023V217.78H486.95V214.023H502.43ZM492.19 207.064H497.085V235.562C497.085 236.532 497.235 237.264 497.535 237.758C497.835 238.252 498.223 238.578 498.699 238.737C499.175 238.896 499.687 238.975 500.234 238.975C500.639 238.975 501.063 238.94 501.504 238.869C501.962 238.781 502.306 238.711 502.536 238.658L502.562 242.653C502.174 242.777 501.662 242.891 501.027 242.997C500.41 243.121 499.66 243.182 498.778 243.182C497.579 243.182 496.476 242.944 495.471 242.468C494.465 241.992 493.663 241.198 493.063 240.086C492.481 238.957 492.19 237.44 492.19 235.535V207.064Z" fill="white"/>
<rect x="73.9003" y="126.739" width="34.5917" height="23.5852" fill="white"/>
<mask id="mask0_16_1236" style="mask-type:luminance" maskUnits="userSpaceOnUse" x="0" y="46" width="180" height="134">
<path d="M179.248 46.5495H0V179.133H179.248V46.5495Z" fill="white"/>
</mask>
<g mask="url(#mask0_16_1236)">
<path d="M179.249 131.737C179.249 140.018 177.079 148.153 172.956 155.335C168.834 162.515 162.902 168.491 155.752 172.666C148.601 176.842 140.481 179.071 132.201 179.132C123.921 179.193 115.769 177.084 108.558 173.015C103.71 176.577 97.9439 178.677 91.9409 179.068C85.9378 179.458 79.948 178.122 74.6797 175.218C68.1443 177.823 61.17 179.153 54.1343 179.134C24.2849 179.134 0.00183105 155.582 0.00183105 126.63C0.00183105 97.679 24.2849 74.1267 54.1343 74.1267H54.1469C60.0555 64.2681 68.818 56.4357 79.275 51.6654C89.7319 46.8952 101.39 45.412 112.709 47.4121C124.027 49.4122 134.471 54.8013 142.66 62.8665C150.848 70.9317 156.396 81.2928 158.568 92.5793C164.965 96.9075 170.197 102.744 173.803 109.573C177.41 116.402 179.281 124.014 179.249 131.737ZM108.078 160.867C109.18 160.866 110.256 161.201 111.163 161.827C115.187 164.592 119.726 166.522 124.51 167.503C129.293 168.485 134.225 168.496 139.014 167.537C143.801 166.578 148.349 164.669 152.386 161.923C156.424 159.176 159.87 155.647 162.519 151.545C165.169 147.444 166.969 142.852 167.814 138.042C168.659 133.233 168.529 128.302 167.435 123.544C166.341 118.785 164.303 114.294 161.443 110.336C158.582 106.378 154.956 103.034 150.781 100.502C150.096 100.086 149.512 99.5239 149.07 98.8559C148.628 98.1879 148.339 97.4304 148.223 96.6376C146.813 87.0349 142.393 78.1268 135.601 71.194C128.808 64.2614 119.992 59.6612 110.421 58.0551C100.849 56.449 91.0143 57.9196 82.3303 62.2554C73.6469 66.5913 66.5626 73.569 62.0948 82.1855C61.6116 83.1213 60.8662 83.896 59.9496 84.4147C59.033 84.9334 57.9851 85.1737 56.9341 85.106C55.8588 85.0397 54.9673 85.0078 54.1297 85.0078C30.278 85.0078 10.8729 103.681 10.8729 126.633C10.8729 149.585 30.2807 168.258 54.1297 168.258C60.5898 168.278 66.9761 166.883 72.8391 164.171C73.6967 163.774 74.6426 163.608 75.5838 163.688C76.525 163.768 77.429 164.092 78.207 164.627C82.1391 167.332 86.887 168.588 91.6422 168.183C96.3967 167.778 100.864 165.737 104.282 162.407C105.298 161.418 106.66 160.865 108.078 160.867Z" fill="white"/>
<path d="M94.3031 98.5388C93.0738 97.3094 91.4058 96.6187 89.6674 96.6187C87.9283 96.6187 86.261 97.3094 85.0317 98.5388L64.4504 119.12L62.4067 121.164L51.9192 131.652L27.8831 155.688C34.3018 160.382 41.8579 163.276 49.7699 164.069C57.6819 164.864 65.6624 163.53 72.8861 160.206C73.7437 159.811 74.6889 159.645 75.6301 159.724C76.5707 159.805 77.4747 160.129 78.2527 160.664C82.1841 163.368 86.9327 164.624 91.6872 164.219C96.4417 163.814 100.909 161.773 104.327 158.443C105.229 157.566 106.408 157.028 107.662 156.923C108.916 156.817 110.168 157.149 111.205 157.863C117.394 162.125 124.75 164.371 132.264 164.292C139.779 164.212 147.085 161.812 153.183 157.419L94.3031 98.5388ZM89.1822 148.034C89.1822 148.28 89.0839 148.516 88.91 148.691C88.7355 148.865 88.4992 148.963 88.2529 148.963H80.7013C80.455 148.963 80.2187 148.865 80.0442 148.691C79.8696 148.516 79.772 148.28 79.772 148.034V140.482C79.772 140.236 79.8696 139.999 80.0442 139.825C80.2187 139.651 80.455 139.553 80.7013 139.553H88.2529C88.4992 139.553 88.7355 139.651 88.91 139.825C89.0839 139.999 89.1822 140.236 89.1822 140.482V148.034ZM89.1822 136.597C89.1822 136.843 89.0839 137.079 88.91 137.254C88.7355 137.429 88.4992 137.526 88.2529 137.526H80.7013C80.455 137.526 80.2187 137.429 80.0442 137.254C79.8696 137.079 79.772 136.843 79.772 136.597V129.045C79.772 128.799 79.8696 128.563 80.0442 128.388C80.2187 128.214 80.455 128.116 80.7013 128.116H88.2529C88.4992 128.116 88.7355 128.214 88.91 128.388C89.0839 128.563 89.1822 128.799 89.1822 129.045V136.597ZM101.294 148.034C101.294 148.28 101.196 148.516 101.022 148.691C100.847 148.865 100.611 148.963 100.365 148.963H92.813C92.5667 148.963 92.3304 148.865 92.1558 148.691C91.9813 148.516 91.8837 148.28 91.8837 148.034V140.482C91.8837 140.236 91.9813 139.999 92.1558 139.825C92.3304 139.651 92.5667 139.553 92.813 139.553H100.365C100.611 139.553 100.847 139.651 101.022 139.825C101.196 139.999 101.294 140.236 101.294 140.482V148.034ZM101.294 136.597C101.294 136.843 101.196 137.079 101.022 137.254C100.847 137.429 100.611 137.526 100.365 137.526H92.813C92.5667 137.526 92.3304 137.429 92.1558 137.254C91.9813 137.079 91.8837 136.843 91.8837 136.597V129.045C91.8837 128.799 91.9813 128.563 92.1558 128.388C92.3304 128.214 92.5667 128.116 92.813 128.116H100.365C100.611 128.116 100.847 128.214 101.022 128.388C101.196 128.563 101.294 128.799 101.294 129.045V136.597Z" fill="white"/>
</g>
<path d="M106.92 120.325V139.955C106.92 140.756 106.616 141.524 106.075 142.09C105.535 142.656 104.801 142.975 104.037 142.975H86.7411V145.994C86.7413 146.293 86.6569 146.585 86.4985 146.834C86.3402 147.083 86.115 147.276 85.8515 147.391C85.588 147.505 85.298 147.535 85.0183 147.477C84.7385 147.418 84.4816 147.274 84.28 147.063L79.9561 142.533C79.8221 142.393 79.7157 142.226 79.6432 142.043C79.5707 141.86 79.5333 141.663 79.5333 141.465C79.5333 141.266 79.5707 141.07 79.6432 140.886C79.7157 140.703 79.8221 140.537 79.9561 140.396L84.28 135.866C84.4816 135.655 84.7385 135.511 85.0183 135.453C85.298 135.394 85.588 135.424 85.8515 135.539C86.115 135.653 86.3402 135.847 86.4985 136.095C86.6569 136.344 86.7413 136.636 86.7411 136.935V139.955H104.037V120.325H83.8584V121.835C83.8584 122.236 83.7066 122.62 83.4363 122.903C83.166 123.186 82.7994 123.345 82.4171 123.345C82.0349 123.345 81.6682 123.186 81.3979 122.903C81.1276 122.62 80.9758 122.236 80.9758 121.835V120.325C80.9758 119.524 81.2795 118.756 81.8201 118.19C82.3607 117.624 83.0939 117.305 83.8584 117.305H104.037C104.801 117.305 105.535 117.624 106.075 118.19C106.616 118.756 106.92 119.524 106.92 120.325ZM96.8303 147.504C96.448 147.504 96.0814 147.664 95.8111 147.947C95.5408 148.23 95.389 148.614 95.389 149.014V150.524H75.2105V130.895H92.5063V133.915C92.5061 134.214 92.5905 134.506 92.7489 134.754C92.9072 135.003 93.1324 135.197 93.3959 135.311C93.6595 135.425 93.9494 135.455 94.2292 135.397C94.5089 135.339 94.7658 135.195 94.9674 134.983L99.2914 130.453C99.4254 130.313 99.5317 130.147 99.6042 129.963C99.6767 129.78 99.7141 129.583 99.7141 129.385C99.7141 129.187 99.6767 128.99 99.6042 128.807C99.5317 128.623 99.4254 128.457 99.2914 128.317L94.9674 123.787C94.7658 123.575 94.5089 123.431 94.2292 123.373C93.9494 123.315 93.6595 123.345 93.3959 123.459C93.1324 123.573 92.9072 123.767 92.7489 124.016C92.5905 124.264 92.5061 124.556 92.5063 124.855V127.875H75.2105C74.446 127.875 73.7128 128.193 73.1722 128.76C72.6316 129.326 72.3279 130.094 72.3279 130.895V150.524C72.3279 151.325 72.6316 152.093 73.1722 152.66C73.7128 153.226 74.446 153.544 75.2105 153.544H95.389C96.1535 153.544 96.8867 153.226 97.4273 152.66C97.9679 152.093 98.2716 151.325 98.2716 150.524V149.014C98.2716 148.614 98.1198 148.23 97.8495 147.947C97.5792 147.664 97.2126 147.504 96.8303 147.504Z" fill="#2870C5"/>
</svg>
